<svg id="barbershop" xmlns="http://www.w3.org/2000/svg" width="348.752" height="348.752" viewBox="0 0 348.752 348.752">
  <path id="Caminho_5" data-name="Caminho 5" d="M348.752,348.752v0h0Z" fill="#fff" fill-rule="evenodd"/>
  <path id="Caminho_6" data-name="Caminho 6" d="M185.592,126.669l7.7.416-5.7-7.689a56.048,56.048,0,0,1-3.968-6.2l-3.226-7.689h-2.477v7.689c0,3.224.494,4.961,1.238,4.961h2.978v1.985H167v-1.985h2.233a.533.533,0,0,0,.494-.5v-24.8a5.082,5.082,0,0,0-.494-2.728,1.9,1.9,0,0,0-1.241-.5H165.76V87.647h16.37a16.22,16.22,0,0,1,6.2,1.241c3.474,1.737,5.209,4.465,5.209,8.681a6.557,6.557,0,0,1-1.241,3.472,7.555,7.555,0,0,1-5.457,2.976c.993,1.737,5.954,9.674,15.131,23.562l7.438.25-5.457-6.448c-3.222-4.217-4.957-7.442-5.209-9.177a9.049,9.049,0,0,1,1.739-6.448c1.487-1.737,3.718-2.481,6.448-2.481,3.722,0,6.2,3.224,7.438,9.92-1.983-4.961-5.209-6.7-9.425-4.961a4.2,4.2,0,0,0-2.481,1.985l-.248,1.489a5.263,5.263,0,0,0,2.481,4.465,9.927,9.927,0,0,0,6.7,2.231,11.276,11.276,0,0,0,6.7-1.985,8.454,8.454,0,0,0,2.728-6.2,5.971,5.971,0,0,0-1.735-4.464,17.791,17.791,0,0,0-4.467-2.481l-5.7-1.985a24.292,24.292,0,0,1-5.209-2.976,11.565,11.565,0,0,1,1.239-19.1,19.3,19.3,0,0,1,11.411-3.224,31.559,31.559,0,0,1,9.177,1.239l.494,5.954c.248.991-.248,1.489-.993,1.489s-1.238-.5-1.487-1.489a4.905,4.905,0,0,0-2.728-3.224,11.163,11.163,0,0,0-10.168.5,6.142,6.142,0,0,0-2.732,5.209,4.465,4.465,0,0,0,1.739,3.722,12.75,12.75,0,0,0,4.216,2.231l5.7,2.233a22.83,22.83,0,0,1,5.954,3.224,14.069,14.069,0,0,1,2.976,4.464,13.31,13.31,0,0,1,1.241,5.209q0,8.557-5.951,11.907c-3.474,1.735-8.931,2.728-16.124,2.728-.494,0-.248.744.745,1.985a14.754,14.754,0,0,0,3.722,4.465l19.595.991,16.369,1.985q-.372,1.118-29.765,2.233a30.437,30.437,0,0,0,8.435,3.472,32.653,32.653,0,0,0,13.888,0,51.129,51.129,0,0,0,9.676-4.465A80.2,80.2,0,0,1,261,126.841a51.854,51.854,0,0,1,17.114-2.481c4.961,0,8.931.745,11.905,2.481,2.481,1.487,3.968,3.224,4.467,5.459a6.643,6.643,0,0,1-1.241,5.7c-1.491,1.737-3.722,2.481-6.448,2.481,4.711-6.7.742-10.914-11.905-12.4a39.842,39.842,0,0,0-10.915.744,28.905,28.905,0,0,0-8.679,3.224l-7.937,3.722a27.529,27.529,0,0,1-8.435,2.728,34.785,34.785,0,0,1-15.873-1.487,47.571,47.571,0,0,1-7.937-3.968l-9.425.248,19.343,29.515L210.4,148.672c-.742,0-4.711-4.713-11.905-14.387l-.494-.744-9.425.485v.261c0,.016-.029.226-.033.241l0,.014a6.927,6.927,0,0,1-.764,1.82l0,0a8.64,8.64,0,0,1-4.018,3.295l-.029.014a11.674,11.674,0,0,1-2.169.7,12.828,12.828,0,0,1-6.148-.172l-.011,0a15.093,15.093,0,0,1-2.321-.849,13.591,13.591,0,0,1-4.608-3.43h0a8.709,8.709,0,0,1-1.907-3.353,6.678,6.678,0,0,1-.04-3.485l0-.014a6.517,6.517,0,0,1,.765-1.818l0,0a8.628,8.628,0,0,1,4.015-3.295l.089-.036.033-.011c.322-.1.664-.2,1.035-.3v0q.529-.133,1.089-.228a14.14,14.14,0,0,1,6.061.264,11.912,11.912,0,0,1,1.538.344,10.861,10.861,0,0,1,3.581,1.833l.078.074.778.773Zm1,7.5v-.631l.011-.139a4.776,4.776,0,0,0-.177-2.16,6.571,6.571,0,0,0-1.3-2.234l-1.646-1.646a8.717,8.717,0,0,0-2.891-1.469q-.32-.1-.646-.174h0q-.322-.073-.65-.118l-.025,0-.119-.025a12.251,12.251,0,0,0-6.19-.038h0c-.286.072-.583.159-.883.259a6.668,6.668,0,0,0-3.067,2.49h0a5.171,5.171,0,0,0-.315.613,5.015,5.015,0,0,0-.217.659l0,.014a4.718,4.718,0,0,0,.022,2.468,6.827,6.827,0,0,0,1.5,2.595l.011.007a11.569,11.569,0,0,0,3.93,2.918,13.1,13.1,0,0,0,2.014.733l.011,0a10.877,10.877,0,0,0,5.205.157,10.228,10.228,0,0,0,1.795-.59l.033-.014a6.675,6.675,0,0,0,3.114-2.513h0a4.183,4.183,0,0,0,.5-1.16Zm-2.976-32.131a6.071,6.071,0,0,1-4.467,1.489h-1.238v-12.9c0-.248.248-.5.99-.5a6.1,6.1,0,0,1,4.713,2.233,7.586,7.586,0,0,1,1.735,4.961,6.16,6.16,0,0,1-1.733,4.711Zm79.868-14.386v1.985h-1.735l-.745.25-.248.744V113.2c0,3.224.494,4.961,1.241,4.961h2.728v1.985H249.844v-1.985h2.229a.533.533,0,0,0,.494-.5v-13.89H241.655V113.2c0,3.224.5,4.961,1.241,4.961h2.976v1.985H230.745v-1.985h2.233a.533.533,0,0,0,.494-.5V92.856a5.082,5.082,0,0,0-.494-2.728,1.3,1.3,0,0,0-.993-.5H229.5V87.647h15.131v1.985h-1.987l-.745.25-.248.744v10.912h10.912V92.856a5.082,5.082,0,0,0-.494-2.728,1.286,1.286,0,0,0-.993-.5H248.6V87.647h14.885v0Zm5.455,29.267a18.09,18.09,0,0,0,12.153,4.217c6.2,0,10.915-2.233,14.138-6.448a17.5,17.5,0,0,0,3.968-11.659c0-4.961-1.487-8.929-4.711-11.905a17.1,17.1,0,0,0-12.157-4.465c-6.2,0-10.912,2.233-14.138,6.45a18.432,18.432,0,0,0-3.968,11.657C264.226,109.971,265.716,113.939,268.939,116.916Zm29.519-29.267v1.985h2.477a1.294,1.294,0,0,1,.993.5,5.051,5.051,0,0,1,.5,2.728v24.8a.536.536,0,0,1-.5.5H299.7v1.985h15.128v-1.985H311.85c-.745,0-1.241-1.737-1.241-4.961V105.01l4.216.5a12.948,12.948,0,0,0,8.931-2.976,8.339,8.339,0,0,0,2.728-5.953,7.541,7.541,0,0,0-2.481-5.7c-1.983-2.231-4.961-3.224-8.931-3.224H298.457ZM280.35,88.888c3.722,0,6.7,2.233,8.431,6.946a29.609,29.609,0,0,1,2.233,11.657,16.957,16.957,0,0,1-1.487,7.689,7.193,7.193,0,0,1-6.448,3.722c-3.722,0-6.7-2.231-8.683-6.7a35.182,35.182,0,0,1-1.983-11.905,16.544,16.544,0,0,1,1.487-7.442,6.516,6.516,0,0,1,6.45-3.971Zm36.211,3.474a7.783,7.783,0,0,1,1.739,5.209,5.244,5.244,0,0,1-1.487,3.968,5.441,5.441,0,0,1-4.219,1.737l-1.983-.5V90.625c0-.248.494-.5,1.241-.5a5.758,5.758,0,0,1,4.71,2.233ZM198,130.558l.494-1.241,1.241-.5a1.9,1.9,0,0,1,1.241.5l.5,1.241a1.913,1.913,0,0,1-.5,1.241,1.887,1.887,0,0,1-1.241.5l-1.241-.5a1.907,1.907,0,0,1-.494-1.241ZM11.73,79.711a2.1,2.1,0,0,1,1.487.5,6.974,6.974,0,0,1,.744,3.72v32.989c0,.248-.5.5-1.241.5l-3.224.248v2.481H24.627l6.944-.248a22.413,22.413,0,0,0,6.7-1.489,12.256,12.256,0,0,0,5.953-3.72,10.881,10.881,0,0,0,2.233-6.7q0-9.3-11.907-11.907a17.719,17.719,0,0,0,6.448-2.728,8.234,8.234,0,0,0,3.472-6.7,9.122,9.122,0,0,0-1.985-5.209C40,78.716,36.032,77.225,30.328,77.225H8.5v2.481H11.73ZM58.607,87.9l-6.2,14.136c-3.722,8.931-5.7,14.138-6.2,15.379,0,.248-.248.494-.5.744H43.23v1.985H53.4v-1.985H49.678l-.248-.744a21.758,21.758,0,0,1,1.241-4.711l1.487-3.722h9.674c1.985,5.7,2.978,8.433,2.978,8.681s-.248.5-.745.5H61.833v1.985H76.716v-1.985H75.227a1.363,1.363,0,0,1-1.489-.993L72,113.442,66.544,99.056c-2.231-5.7-3.224-8.931-3.224-9.426l.744-.991c.248-.248.5-.5.5-.744a.659.659,0,0,0-.745-.745l-5.207.747ZM26.364,80.207a8.222,8.222,0,0,1,6.2,2.481,8.785,8.785,0,0,1,2.481,6.448,8.28,8.28,0,0,1-.744,3.72,4.819,4.819,0,0,1-2.976,2.481l-6.7-.5V80.95C24.627,80.455,25.122,80.207,26.364,80.207ZM24.627,106.5V97.323c4.217,0,7.194,1.241,9.177,3.968a10.882,10.882,0,0,1,2.233,6.7,9.716,9.716,0,0,1-2.233,6.448,8.448,8.448,0,0,1-6.2,2.728l-1.489-.248a1.929,1.929,0,0,1-.991-.991,58.854,58.854,0,0,1-.5-9.426Zm28.276.246,4.464-10.168,3.722,10.168Zm27.532-13.89v24.8a.534.534,0,0,1-.5.5H77.708v1.985H92.837v-1.985H89.861c-.744,0-1.241-1.737-1.241-4.961V105.5H91.1l3.472,7.689a24.385,24.385,0,0,0,3.968,6.2,3.408,3.408,0,0,0,.993.744h9.672v-1.985a3.979,3.979,0,0,1-2.728-1.241c-2.728-2.728-5.457-7.194-8.681-12.9a7.058,7.058,0,0,0,5.209-2.976,5.363,5.363,0,0,0,1.487-3.472c0-4.217-1.735-6.944-5.457-8.681a15,15,0,0,0-5.953-1.241H76.465V89.63h2.481a1.29,1.29,0,0,1,.991.5,5.051,5.051,0,0,1,.5,2.73Zm9.425-2.727a5.636,5.636,0,0,1,4.465,2.233,7.586,7.586,0,0,1,1.735,4.961,7.14,7.14,0,0,1-1.489,4.711,6.932,6.932,0,0,1-4.465,1.489H88.618v-12.9C88.619,90.377,89.115,90.129,89.859,90.129Zm23.315,2.727v24.8a.534.534,0,0,1-.5.5h-2.233v1.985h10.914c4.711,0,8.185-.5,10.17-1.241,4.216-1.487,6.2-4.216,6.2-7.937q0-7.067-8.931-8.931a23.912,23.912,0,0,0,4.961-2.231,5.513,5.513,0,0,0,2.481-4.961,5.95,5.95,0,0,0-1.489-3.72c-1.735-2.233-4.961-3.472-9.177-3.472H109.2v1.985h2.481a1.3,1.3,0,0,1,.993.5,5.063,5.063,0,0,1,.5,2.728Zm27.286-3.224h-2.482V87.647h26.045l-.5,5.209c-.248.5-.5.745-.991.745s-.745-.248-.745-.991l-.5-.993-.991-.744-4.217-.744h-5.7l-.248.744v10.666h2.728a19.549,19.549,0,0,0,5.209-.494,1.5,1.5,0,0,0,.744-1.489V97.82h1.737v8.929h-1.737V106a2.364,2.364,0,0,0-.5-1.735,9.8,9.8,0,0,0-3.72-.5h-4.465v6.2a44.438,44.438,0,0,0,.248,6.7c.25.744.5,1.239.991,1.239l7.689-.494c2.728-.5,4.217-1.487,4.961-2.728l.993-.745a.659.659,0,0,1,.744.745,25.945,25.945,0,0,1-1.489,5.457H139.218V118.16h2.233a.535.535,0,0,0,.5-.5V92.856a5.076,5.076,0,0,0-.5-2.728,1.3,1.3,0,0,0-.991-.5Zm-14.138,11.659-4.961-.248V90.625c0-.248.5-.5,1.241-.5a6.541,6.541,0,0,1,4.711,1.737,6.76,6.76,0,0,1,1.737,4.959,8.967,8.967,0,0,1-.5,2.728,3.166,3.166,0,0,1-2.233,1.737Zm-2.73,16.617-1.239-.248c-.248,0-.5-.248-.5-.744a31.609,31.609,0,0,1-.5-6.944v-6.946A8.645,8.645,0,0,1,128.3,106a7.575,7.575,0,0,1,1.737,4.961,6.775,6.775,0,0,1-1.985,4.711,5.637,5.637,0,0,1-4.465,2.231Z" transform="translate(6.882 61.5)" fill="#fff" fill-rule="evenodd"/>
</svg>
