<svg id="_x33_0" enable-background="new 0 0 64 64" height="512" viewBox="0 0 64 64" width="512" xmlns="http://www.w3.org/2000/svg"><g><g><g><path d="m20 18c0-1.29.2-2.54.58-3.7-1.96.21-3.82.53-5.53.91-1.43.31-2.76.67-3.99 1.04-1.57.47-2.97.97-4.16 1.44v.01c-1.58.62-2.82 1.21-3.65 1.63l1.75 4.67h4 4 4 4.6c-1.02-1.76-1.6-3.81-1.6-6z" fill="#dfb28b"/></g><g><path d="m50 18.83c-1.11-.5-2.45-1.05-4-1.59-.66-.24-1.36-.47-2.09-.69.06.47.09.96.09 1.45 0 2.19-.58 4.24-1.6 6h3.6 4 4v-3s-1.37-.96-4-2.17z" fill="#dfb28b"/></g><g><path d="m11.06 16.25c-1.57.47-2.97.97-4.16 1.44v.01c-1.58.62-2.82 1.21-3.65 1.63l-1.25-3.33s6.34-3.81 16-5.36c1.57-.25 3.23-.44 4.97-.55-1.06 1.21-1.88 2.64-2.39 4.21-1.96.21-3.82.53-5.53.91-1.43.31-2.76.67-3.99 1.04z" fill="#d3a06c"/></g><g><path d="m46 17.24c-.66-.24-1.36-.47-2.09-.69-.19-1.59-.69-3.08-1.44-4.42 7.52 2.06 11.53 4.87 11.53 4.87v4s-1.37-.96-4-2.17c-1.11-.5-2.45-1.05-4-1.59z" fill="#d3a06c"/></g><g><path d="m62 14-3 10h-5v-3-4s-4.01-2.81-11.53-4.87c-2.05-3.66-5.97-6.13-10.47-6.13-3.6 0-6.83 1.58-9.03 4.09-1.74.11-3.4.3-4.97.55v-8.64h9.79c12.44 0 24.5 4.23 34.21 12z" fill="#e6e9ed"/></g><g><path d="m25.36 28h-21.36-1c-.55 0-1-.45-1-1v-2c0-.55.45-1 1-1h2 4 4 4 4.6c.93 1.6 2.22 2.97 3.76 4z" fill="#ccd1d9"/></g><g><path d="m62 25v2c0 .55-.45 1-1 1h-1-21.36c1.54-1.03 2.83-2.4 3.76-4h3.6 4 4 5 2c.55 0 1 .45 1 1z" fill="#ccd1d9"/></g><g><path d="m60 32-.06.16c-.29-.11-.61-.16-.94-.16-1.66 0-3 1.34-3 3s1.34 3 3 3h-2c-.55 0-1 .45-1 1v3 4 4 3c0 .55.45 1 1 1h3v8h-6v-3c0-.55-.45-1-1-1h-3v-24h-16v14 10h-6v-1c0-.47-.33-.87-.78-.98.48-.53.78-1.24.78-2.02 0-1.31-.85-2.41-2.02-2.82.01-.06.02-.12.02-.18 0-1.66-1.34-3-3-3-1.31 0-2.41.85-2.82 2.02-.06-.01-.12-.02-.18-.02s-.11 0-.17.01v-.01c.11-.31.17-.65.17-1 0-1.66-1.34-3-3-3-.92 0-1.74.42-2.29 1.08-.71-.67-1.66-1.08-2.71-1.08-1.61 0-3 .96-3.64 2.33-.41-.21-.87-.33-1.36-.33-1.66 0-3 1.34-3 3v-23h21.36c1.9 1.26 4.18 2 6.64 2s4.74-.74 6.64-2h21.36z" fill="#e6e9ed"/></g><g><path d="m59.94 32.16c1.2.39 2.06 1.51 2.06 2.84 0 1.66-1.34 3-3 3s-3-1.34-3-3 1.34-3 3-3c.33 0 .65.05.94.16z" fill="#fcd770"/></g><g><path d="m62 39v3h-6v-3c0-.55.45-1 1-1h2 2c.55 0 1 .45 1 1z" fill="#ffeaa7"/></g><g><path d="m62 50v3c0 .55-.45 1-1 1h-1-3c-.55 0-1-.45-1-1v-3z" fill="#ffeaa7"/></g><g><path d="m56 42v4 4h6v-4-4z" fill="#ff826e"/></g><g><path d="m54 59v3h-26v-4h6 4 4 4 4 3c.55 0 1 .45 1 1z" fill="#ccd1d9"/></g><g><path d="m27.22 56.02c.45.11.78.51.78.98v1 4h-26v-5c0-.47.33-.87.78-.98.07-.01.14-.02.22-.02h7 10 7c.08 0 .15.01.22.02z" fill="#aab2bd"/></g><g><path d="m20 49c0 .35-.06.69-.17 1v.01c-1.58.08-2.83 1.39-2.83 2.99 0 1.66 1.34 3 3 3h-10c1.66 0 3-1.34 3-3s-1.34-3-3-3c-.06 0-.12.01-.18.02-.26-.73-.78-1.34-1.46-1.69.64-1.37 2.03-2.33 3.64-2.33 1.05 0 2 .41 2.71 1.08.55-.66 1.37-1.08 2.29-1.08 1.66 0 3 1.34 3 3z" fill="#b4dd7f"/></g><g><path d="m3 56c-.08 0-.15.01-.22.02-.48-.53-.78-1.24-.78-2.02 0-1.31.85-2.41 2.02-2.82-.01-.06-.02-.12-.02-.18 0-1.66 1.34-3 3-3 .49 0 .95.12 1.36.33.68.35 1.2.96 1.46 1.69.06-.01.12-.02.18-.02 1.66 0 3 1.34 3 3s-1.34 3-3 3z" fill="#b4dd7f"/></g><g><path d="m28 54c0 .78-.3 1.49-.78 2.02-.07-.01-.14-.02-.22-.02h-7c-1.66 0-3-1.34-3-3 0-1.6 1.25-2.91 2.83-2.99.06-.01.11-.01.17-.01s.12.01.18.02c.41-1.17 1.51-2.02 2.82-2.02 1.66 0 3 1.34 3 3 0 .06-.01.12-.02.18 1.17.41 2.02 1.51 2.02 2.82z" fill="#a0d468"/></g><g><path d="m34 34h16v24h-16z" fill="#aab2bd"/></g><g><path d="m38 38h8v20h-8z" fill="#69d6f4"/></g><g><circle cx="36" cy="48" fill="#fcd770" r="2"/></g><g><path d="m20 34h-8v8h8 8v-8z" fill="#69d6f4"/></g><g><path d="m42.4 24c-.93 1.6-2.22 2.97-3.76 4-1.9 1.26-4.18 2-6.64 2s-4.74-.74-6.64-2c-1.54-1.03-2.83-2.4-3.76-4-1.02-1.76-1.6-3.81-1.6-6 0-1.29.2-2.54.58-3.7.51-1.57 1.33-3 2.39-4.21 2.2-2.51 5.43-4.09 9.03-4.09 4.5 0 8.42 2.47 10.47 6.13.75 1.34 1.25 2.83 1.44 4.42.06.47.09.96.09 1.45 0 2.19-.58 4.24-1.6 6z" fill="#ffeaa7"/></g></g><g><path d="m37.754 15c-1.492 0-2.788 1.011-3.149 2.459l-.124.496-1.272-.363-2.247-7.866-1.923.55 1.905 6.669-6.669-1.905-.55 1.923 7.866 2.247.363 1.272-.496.124c-1.447.36-2.458 1.656-2.458 3.148 0 1.79 1.456 3.246 3.246 3.246 1.519 0 2.754-1.236 2.754-2.754 0-.254-.036-.508-.106-.757l-1.038-3.633 3.635 1.039c.246.069.501.105.755.105 1.519 0 2.754-1.235 2.754-2.754 0-1.79-1.456-3.246-3.246-3.246zm-5.508 10c-.687 0-1.246-.559-1.246-1.246 0-.573.388-1.07.944-1.209l.56-.14.466 1.632c.02.068.03.139.03.209 0 .416-.338.754-.754.754zm5.793-6.029-1.634-.467.14-.56c.139-.556.636-.944 1.209-.944.687 0 1.246.559 1.246 1.246 0 .485-.496.857-.961.725z"/><path d="m61 23h-.656l2.808-9.359-.527-.421c-9.85-7.881-22.221-12.22-34.834-12.22h-10.791v8.805c-9.209 1.623-15.216 5.159-15.515 5.338l-.714.429 2.786 7.428h-.557c-1.103 0-2 .897-2 2v2c0 1.103.897 2 2 2v21.551c-1.22.706-2 2.012-2 3.449 0 .624.16 1.225.432 1.773-.266.34-.432.762-.432 1.227v6h60v-8c1.103 0 2-.897 2-2v-14c0-.659-.324-1.24-.817-1.604.506-.67.817-1.494.817-2.396 0-1.474-.81-2.75-2-3.444v-2.556c1.103 0 2-.897 2-2v-2c0-1.103-.897-2-2-2zm-42-20h8.791c11.937 0 23.648 4.03 33.056 11.364l-2.591 8.636h-3.256v-6.521l-.426-.299c-.167-.117-4.115-2.837-11.47-4.907-2.283-3.752-6.399-6.273-11.104-6.273-3.737 0-7.101 1.594-9.475 4.127-1.215.084-2.39.209-3.525.365zm13 26c-6.065 0-11-4.935-11-11s4.935-11 11-11 11 4.935 11 11-4.935 11-11 11zm-22.279-6-1.571-4.712c.678-.254 1.414-.512 2.199-.767l1.37 5.479zm4.06 0-1.516-6.062c.646-.183 1.326-.357 2.024-.525l1.465 6.587zm4.021 0-1.56-7.021c.965-.193 1.97-.364 3.009-.508-.162.818-.251 1.663-.251 2.529 0 1.771.359 3.46 1.003 5zm35.198-3.774c-1.58-.879-4.342-2.225-8.204-3.447-.124-.714-.306-1.407-.541-2.076 4.697 1.495 7.689 3.191 8.745 3.843zm-8.003-1.279c.001 0 .002.001.003.001v.052 5h-1.003c.644-1.54 1.003-3.229 1.003-5 0-.018-.003-.035-.003-.053zm2.003.718c.728.28 1.392.556 2 .824v3.511h-2zm4 1.769c.933.475 1.604.867 2 1.112v1.454h-2zm-30.103-9.161c-.405.666-.751 1.368-1.033 2.105-7.387.895-13.179 3.211-16.066 4.569l-.558-1.488c2.127-1.116 8.758-4.248 17.657-5.186zm-16.394 8.554c.5-.238 1.094-.507 1.785-.799l1.324 3.972h-1.919zm-1.503 5.173h18.063c.461.718.989 1.388 1.578 2h-19.641zm1.347 27.123.718-.25-.049-.759-.016-.114c0-1.103.897-2 2-2 .842 0 1.597.542 1.877 1.347l.25.718.759-.049.114-.016c1.103 0 2 .897 2 2s-.897 2-2 2h-6.727c-.175-.302-.273-.645-.273-1 0-.842.542-1.597 1.347-1.877zm21.306 0c.805.28 1.347 1.035 1.347 1.877 0 .355-.097.698-.273 1h-6.727c-1.103 0-2-.897-2-2s.897-2 1.965-2l.907.065.25-.718c.281-.805 1.036-1.347 1.878-1.347 1.103 0 2 .897 2 1.965l-.065.907zm-6.665-2.98c-1.715.451-2.988 2.003-2.988 3.857 0 .732.212 1.409.556 2h-3.113c.345-.591.557-1.268.557-2 0-2.048-1.547-3.741-3.534-3.973-.204-.36-.465-.676-.762-.952.563-.668 1.399-1.075 2.296-1.075.75 0 1.472.288 2.034.81l.769.715.676-.803c.387-.459.941-.722 1.521-.722 1.103 0 2 .897 2 2 0 .048-.009.095-.012.143zm8.012 11.857h-24v-4h24zm2-2h24v2h-24zm20-2h-2v-20h-10v8.184c-.314-.112-.648-.184-1-.184s-.686.072-1 .184v-10.184h14zm-4-12h-2v-2h2zm0 2v2h-2v-2zm-4 2h-2v-2h2zm-2 2h2v2h-2zm4 0h2v2h-2zm2-10h-2v-2h2zm-4 0h-2v-2h2zm-2 2h2v2h-2zm0 12h2v2h-2zm4 0h2v2h-2zm-6-7c0 .551-.449 1-1 1s-1-.449-1-1 .449-1 1-1 1 .449 1 1zm-2 2.816c.314.112.648.184 1 .184s.686-.072 1-.184v6.184h-2zm22 2.184v-2h4.001v2zm0-18c0-1.103.897-2 2-2s2 .897 2 2-.897 2-2 2-2-.897-2-2zm4 4v2h-4v-2zm.001 9.132-4.001-2.667v-1.596l4.001 2.667zm-1.698-5.132h1.697v1.132zm-.606 6h-1.697v-1.132zm.303-18c-2.206 0-4 1.794-4 4 0 .902.311 1.726.817 2.396-.493.364-.817.945-.817 1.604v14c0 1.103.897 2 2 2h2v6h-4v-2c0-1.103-.897-2-2-2h-2v-24h-18v24h-4c0-.465-.166-.887-.432-1.227.272-.548.432-1.149.432-1.773 0-1.448-.791-2.765-2.027-3.466-.232-1.987-1.925-3.534-3.973-3.534-.817 0-1.588.259-2.235.701-.543-1.566-2.017-2.701-3.765-2.701-.85 0-1.667.275-2.346.773-.793-.503-1.709-.773-2.654-.773-1.634 0-3.145.812-4.072 2.117-.301-.073-.61-.117-.928-.117-.73 0-1.41.203-2 .546v-18.546h20.103c2.002 1.26 4.362 2 6.897 2s4.895-.74 6.897-2h20.103zm2-4h-19.641c.589-.612 1.117-1.282 1.578-2h18.063z"/><path d="m11 43h18v-10h-18zm16-2h-6v-6h6zm-14-6h6v6h-6z"/></g></g></svg>