<svg id="instagram" xmlns="http://www.w3.org/2000/svg" width="88.176" height="88.176" viewBox="0 0 88.176 88.176">
  <path id="Caminho_1" data-name="Caminho 1" d="M223.877,215.439A8.439,8.439,0,1,1,215.439,207,8.439,8.439,0,0,1,223.877,215.439Zm0,0" transform="translate(-171.351 -171.351)" fill="#fff"/>
  <path id="Caminho_2" data-name="Caminho 2" d="M175.975,141.312a8.384,8.384,0,0,0-4.8-4.8,14.007,14.007,0,0,0-4.7-.871c-2.67-.122-3.471-.148-10.23-.148s-7.561.026-10.23.147a14.016,14.016,0,0,0-4.7.872,8.387,8.387,0,0,0-4.805,4.8,14.012,14.012,0,0,0-.871,4.7c-.122,2.669-.148,3.47-.148,10.23s.026,7.56.148,10.23a14.007,14.007,0,0,0,.871,4.7,8.383,8.383,0,0,0,4.8,4.8,13.99,13.99,0,0,0,4.7.872c2.669.122,3.469.147,10.229.147s7.561-.026,10.23-.147a13.99,13.99,0,0,0,4.7-.872,8.384,8.384,0,0,0,4.8-4.8,14.019,14.019,0,0,0,.872-4.7c.122-2.67.147-3.471.147-10.23s-.026-7.561-.147-10.23A13.99,13.99,0,0,0,175.975,141.312Zm-19.735,27.93a13,13,0,1,1,13-13A13,13,0,0,1,156.24,169.243Zm13.514-23.476a3.038,3.038,0,1,1,3.038-3.038A3.038,3.038,0,0,1,169.753,145.767Zm0,0" transform="translate(-112.152 -112.155)" fill="#fff"/>
  <path id="Caminho_3" data-name="Caminho 3" d="M44.088,0A44.088,44.088,0,1,0,88.176,44.088,44.093,44.093,0,0,0,44.088,0ZM69.251,54.525a18.574,18.574,0,0,1-1.177,6.145,12.945,12.945,0,0,1-7.4,7.4,18.586,18.586,0,0,1-6.145,1.177c-2.7.123-3.562.153-10.437.153s-7.738-.03-10.438-.153a18.587,18.587,0,0,1-6.145-1.177,12.945,12.945,0,0,1-7.4-7.4,18.569,18.569,0,0,1-1.177-6.145c-.124-2.7-.153-3.563-.153-10.438s.029-7.738.153-10.437A18.576,18.576,0,0,1,20.1,27.505a12.953,12.953,0,0,1,7.4-7.4,18.591,18.591,0,0,1,6.145-1.177c2.7-.123,3.562-.153,10.437-.153s7.738.03,10.437.153A18.6,18.6,0,0,1,60.671,20.1a12.948,12.948,0,0,1,7.4,7.4,18.572,18.572,0,0,1,1.177,6.145c.123,2.7.152,3.562.152,10.437S69.375,51.826,69.251,54.525Zm0,0" fill="#fff"/>
</svg>
