<svg id="open-menu" xmlns="http://www.w3.org/2000/svg" width="42.348" height="30.585" viewBox="0 0 42.348 30.585">
  <path id="Caminho_54" data-name="Caminho 54" d="M40.584,126.2H1.765a1.765,1.765,0,1,1,0-3.529H40.584a1.765,1.765,0,1,1,0,3.529Zm0,0" transform="translate(0 -109.14)" fill="#fff"/>
  <path id="Caminho_55" data-name="Caminho 55" d="M40.584,3.529H1.765A1.765,1.765,0,0,1,1.765,0H40.584a1.765,1.765,0,0,1,0,3.529Zm0,0" fill="#fff"/>
  <path id="Caminho_56" data-name="Caminho 56" d="M40.584,248.861H1.765a1.765,1.765,0,0,1,0-3.529H40.584a1.765,1.765,0,0,1,0,3.529Zm0,0" transform="translate(0 -218.276)" fill="#fff"/>
</svg>
