<svg id="whatsapp" xmlns="http://www.w3.org/2000/svg" width="88.176" height="88.176" viewBox="0 0 88.176 88.176">
  <g id="Grupo_12" data-name="Grupo 12" transform="translate(0)">
    <path id="Caminho_4" data-name="Caminho 4" d="M44.1,0h-.022A44.061,44.061,0,0,0,8.393,69.929L2.9,86.308,19.845,80.89A44.08,44.08,0,1,0,44.1,0ZM69.753,62.258c-1.064,3-5.285,5.494-8.652,6.222-2.3.49-5.313.882-15.442-3.318-12.956-5.368-21.3-18.533-21.95-19.388-.623-.854-5.235-6.971-5.235-13.3a14.075,14.075,0,0,1,4.508-10.73,6.406,6.406,0,0,1,4.508-1.582c.546,0,1.036.028,1.477.05,1.3.055,1.945.132,2.8,2.177,1.064,2.563,3.654,8.889,3.962,9.54a2.624,2.624,0,0,1,.187,2.386,7.619,7.619,0,0,1-1.427,2.023c-.65.749-1.268,1.323-1.918,2.127-.6.7-1.268,1.449-.518,2.744A39.132,39.132,0,0,0,39.205,50.1a32.413,32.413,0,0,0,10.339,6.376,2.788,2.788,0,0,0,3.108-.49A53.343,53.343,0,0,0,56.1,51.423a2.461,2.461,0,0,1,3.163-.959c1.19.413,7.489,3.527,8.785,4.172s2.149.959,2.463,1.5S70.816,59.249,69.753,62.258Z" transform="translate(0)" fill="#fff"/>
  </g>
</svg>
